<svg width="27" height="27" viewBox="0 0 27 27" fill="none" xmlns="http://www.w3.org/2000/svg">
<path d="M25.5522 21.5807L22.153 17.9684C21.6437 17.4276 20.8587 17.2292 20.1538 17.4617C19.9795 17.5191 19.8131 17.6019 19.6614 17.7069L17.4971 19.1115C17.0605 18.9298 15.5827 18.1155 12.2659 14.5916C8.92782 11.0467 8.21717 9.53757 8.06846 9.09852L9.60233 7.02059C10.1858 6.28018 10.1377 5.20622 9.49159 4.51871L6.09058 0.906257C5.56207 0.345482 4.7462 0.137507 4.01224 0.379342C3.64776 0.499461 3.32836 0.721388 3.08675 1.02228L2.14867 2.18545C1.30536 3.18872 0.887569 4.42739 0.905199 5.86766C0.920299 7.1345 1.27379 8.56517 1.9565 10.1214C3.10573 12.7356 5.23491 15.7658 7.95245 18.6529C10.3031 21.1507 12.8553 23.2741 15.1397 24.6307C18.0512 26.3618 20.5366 26.9065 22.525 26.251C23.0716 26.071 23.5828 25.7964 24.0433 25.4356L25.2568 24.573C25.7259 24.239 26.0286 23.7185 26.0858 23.1442C26.1423 22.5706 25.9476 22.0011 25.5524 21.5808L25.5522 21.5807Z" fill="white"/>
</svg>
