<svg width="567" height="325" viewBox="0 0 567 325" fill="none" xmlns="http://www.w3.org/2000/svg">
<g clip-path="url(#clip0_73_2)">
<path d="M343.126 211.14V269.129H339.395V254.194C336.835 259.27 333.14 263.36 328.348 266.354C323.519 269.348 318.142 270.882 312.252 270.882C303.729 270.882 296.486 267.888 290.414 261.826C284.341 255.764 281.342 248.497 281.342 240.025C281.342 231.59 284.341 224.396 290.414 218.407C296.486 212.419 303.729 209.424 312.252 209.424C318.142 209.424 323.556 210.958 328.348 213.952C333.177 216.947 336.871 220.963 339.395 226.003V211.177L343.126 211.14ZM331.421 220.854C326.153 215.595 319.751 212.93 312.179 212.93C304.644 212.93 298.279 215.595 293.011 220.854C287.743 226.112 285.11 232.503 285.11 240.062C285.11 247.657 287.707 254.121 293.011 259.416C298.279 264.747 304.644 267.413 312.179 267.413C319.715 267.413 326.116 264.747 331.421 259.416C336.688 254.084 339.359 247.621 339.359 240.062C339.359 232.539 336.688 226.149 331.421 220.854ZM409.776 211.14V269.129H406.045V254.194C403.485 259.27 399.79 263.36 394.998 266.354C390.169 269.348 384.792 270.882 378.902 270.882C370.416 270.882 363.136 267.888 357.064 261.826C350.991 255.764 347.992 248.497 347.992 240.025C347.992 231.59 350.991 224.396 357.064 218.407C363.136 212.419 370.416 209.424 378.902 209.424C384.792 209.424 390.206 210.958 394.998 213.952C399.826 216.947 403.521 220.963 406.045 226.003V211.177L409.776 211.14ZM398.107 220.854C392.84 215.595 386.438 212.93 378.866 212.93C371.33 212.93 364.965 215.595 359.697 220.854C354.43 226.112 351.796 232.503 351.796 240.062C351.796 247.657 354.393 254.121 359.697 259.416C364.965 264.747 371.33 267.413 378.866 267.413C386.401 267.413 392.803 264.747 398.107 259.416C403.375 254.084 406.045 247.621 406.045 240.062C406.045 232.539 403.375 226.149 398.107 220.854ZM546.478 211.14V269.129H542.747V254.194C540.186 259.27 536.492 263.36 531.7 266.354C526.871 269.348 521.494 270.882 515.604 270.882C507.117 270.882 499.838 267.888 493.766 261.826C487.693 255.764 484.694 248.497 484.694 240.025C484.694 231.59 487.693 224.396 493.766 218.407C499.838 212.419 507.117 209.424 515.604 209.424C521.494 209.424 526.908 210.958 531.7 213.952C536.528 216.947 540.223 220.963 542.747 226.003V211.177L546.478 211.14ZM534.809 220.854C529.541 215.595 523.14 212.93 515.568 212.93C508.032 212.93 501.667 215.595 496.399 220.854C491.132 226.112 488.498 232.503 488.498 240.062C488.498 247.657 491.095 254.121 496.399 259.416C501.667 264.747 508.032 267.413 515.568 267.413C523.103 267.413 529.505 264.747 534.809 259.416C540.077 254.084 542.747 247.621 542.747 240.062C542.747 232.539 540.077 226.149 534.809 220.854ZM478.621 211.396V278.514C478.219 282.896 476.975 286.913 474.817 290.638C473.61 292.719 472.11 294.691 470.354 296.59C469.696 297.284 469 297.941 468.305 298.598C462.892 303.309 455.795 306.121 448.076 306.121C440.321 306.121 433.261 303.272 427.847 298.598C427.152 297.977 426.457 297.32 425.799 296.59C420.86 291.368 418.117 285.343 417.495 278.514H421.263C421.811 284.503 424.262 289.688 428.506 294.253C433.627 299.73 439.882 302.579 447.418 302.798C447.637 302.798 447.82 302.798 448.04 302.798C448.259 302.798 448.442 302.798 448.662 302.798C456.197 302.579 462.489 299.73 467.574 294.253C471.744 289.761 474.158 284.685 474.78 278.843V255.034C473.536 257.225 472 259.27 470.171 261.242C469.513 261.935 468.818 262.593 468.123 263.25C462.709 267.924 455.612 270.772 447.893 270.772C440.138 270.772 433.078 267.924 427.664 263.25C426.969 262.629 426.274 261.972 425.616 261.242C420.275 255.581 417.495 249.008 417.202 241.486H417.166V211.469H420.97V241.632C421.226 248.278 423.714 253.975 428.323 258.904C433.444 264.382 439.699 267.23 447.235 267.449C447.454 267.449 447.637 267.449 447.857 267.449C448.076 267.449 448.259 267.449 448.479 267.449C456.014 267.23 462.306 264.382 467.391 258.904C472 253.975 474.488 248.278 474.744 241.632V211.469L478.621 211.396ZM276.44 254.303C276.44 254.595 276.44 254.888 276.44 255.18C276.257 258.868 274.977 261.935 272.526 264.455C271.684 265.112 270.807 265.77 269.855 266.317C265.393 269.093 260.418 270.626 255.04 270.809C254.748 270.809 254.455 270.809 254.162 270.845C254.016 270.845 253.906 270.845 253.76 270.845H253.65C245.456 270.809 238.433 267.997 232.507 262.337L232.799 261.899L233.019 261.534C239.311 265.368 246.115 267.303 253.504 267.303C253.577 267.303 253.614 267.303 253.687 267.303C253.833 267.303 253.979 267.303 254.089 267.303C254.345 267.303 254.638 267.303 254.894 267.267C255.04 267.267 255.15 267.267 255.296 267.23C260.381 266.975 264.917 265.478 268.941 262.702C271.319 260.511 272.636 257.59 272.636 253.975C272.636 249.739 271.282 246.562 268.612 244.48C265.905 242.399 262.612 241.084 258.698 240.573C254.784 240.062 250.87 239.551 246.956 238.93C243.042 238.345 239.713 236.885 237.043 234.584C234.336 232.247 232.946 228.742 232.946 224.067C232.946 223.556 232.982 223.008 233.019 222.497C233.311 219.685 234.409 217.312 236.238 215.303C236.933 214.573 237.738 213.879 238.652 213.222C238.835 213.112 238.981 213.003 239.164 212.893C243.554 210.52 248.419 209.315 253.76 209.315C253.833 209.315 253.87 209.315 253.943 209.315C254.016 209.315 254.089 209.315 254.162 209.315C259.906 209.388 265.137 210.885 269.855 213.843C270.916 214.5 271.904 215.194 272.855 215.961L272.05 217.348C266.014 214.354 259.979 212.82 253.833 212.82C253.797 212.82 253.797 212.82 253.76 212.82C249.224 212.82 245.127 213.806 241.432 215.705C238.469 217.64 236.787 220.489 236.787 224.14C236.787 229.874 240.042 233.306 244.688 234.621C249.334 235.972 255.223 236.556 260.893 237.615C266.49 238.674 271.319 240.281 274.282 245.028C275.745 247.475 276.477 250.506 276.477 254.194L276.44 254.303Z" fill="white"/>
<path d="M211.619 194.927C215.753 194.927 219.118 191.567 219.118 187.441V106.629C219.118 106.227 219.081 105.826 219.008 105.424C219.081 104.036 219.118 102.649 219.118 101.261C219.118 49.5533 177.123 7.63196 125.325 7.63196H38.9949C34.8613 7.63196 31.4958 10.9915 31.4958 15.1179V95.9297C31.4958 96.3314 31.5324 96.7331 31.6056 97.1348C31.5324 98.5224 31.4958 99.91 31.4958 101.298C31.4958 153.006 73.4904 194.927 125.289 194.927H211.619Z" fill="#3157A7"/>
<path d="M275.635 108.126C251.638 108.126 232.177 127.553 232.177 151.508C232.177 152.166 232.177 152.786 232.214 153.444C232.177 153.626 232.177 153.809 232.177 153.992V191.421C232.177 193.32 233.714 194.89 235.652 194.89H275.635C299.632 194.89 319.093 175.463 319.093 151.508C319.093 150.851 319.056 150.23 319.056 149.573C319.093 149.39 319.093 149.208 319.093 149.025V111.595C319.093 109.697 317.52 108.126 315.618 108.126H275.635ZM175.624 209.388C151.627 209.388 132.166 228.815 132.166 252.77C132.166 253.427 132.202 254.048 132.202 254.705C132.166 254.888 132.166 255.07 132.166 255.253V292.683C132.166 294.581 133.702 296.152 135.641 296.152H175.624C199.62 296.152 219.081 276.725 219.081 252.77C219.081 252.112 219.045 251.492 219.045 250.834C219.081 250.652 219.081 250.469 219.081 250.286V212.857C219.081 210.958 217.508 209.388 215.606 209.388H175.624Z" fill="#36A692"/>
</g>
<defs>
<clipPath id="clip0_73_2">
<rect width="567" height="325" fill="white"/>
</clipPath>
</defs>
</svg>
