<svg width="27" height="17" viewBox="0 0 27 17" fill="none" xmlns="http://www.w3.org/2000/svg">
<path d="M24.868 1.38909L19.5588 4.53351V3.5188C19.5588 2.65326 19.2251 1.82298 18.6308 1.21088C18.0367 0.598782 17.2309 0.254799 16.3908 0.254799H3.46799C2.6279 0.254799 1.82204 0.598782 1.22795 1.21088C0.633712 1.82298 0.299988 2.65321 0.299988 3.5188V13.6809C0.299988 14.5465 0.63367 15.3767 1.22795 15.9888C1.82204 16.6009 2.62786 16.9449 3.46799 16.9449H16.3908C17.2309 16.9449 18.0367 16.6009 18.6308 15.9888C19.2251 15.3767 19.5588 14.5465 19.5588 13.6809V12.6662L24.868 15.8106C25.8739 16.4064 26.7001 15.9167 26.7001 14.7227V2.48272C26.7001 1.28306 25.8764 0.793554 24.868 1.38909Z" fill="white"/>
</svg>
