<svg width="27" height="27" viewBox="0 0 27 27" fill="none" xmlns="http://www.w3.org/2000/svg">
<path fill-rule="evenodd" clip-rule="evenodd" d="M13.5 0.28C6.24828 0.28 0.380005 6.14476 0.380005 13.4C0.380005 16.1362 1.21441 18.6669 2.69656 20.8415C2.80821 21.0072 2.83842 21.2147 2.77847 21.4053L1.44597 25.864L5.81253 24.3571V24.3574C6.00152 24.2942 6.20903 24.3208 6.37628 24.429C8.42148 25.756 10.8701 26.5199 13.4997 26.5199C20.755 26.5199 26.6197 20.6552 26.6197 13.3999C26.6197 6.14468 20.755 0.279919 13.4997 0.279919L13.5 0.28ZM8.12907 5.99938L10.5172 9.94564L9.52283 10.9297L9.52306 10.9299C9.31486 11.1397 9.27299 11.463 9.42056 11.7191C10.9379 14.3465 12.7356 16.3906 15.2528 17.5C15.4996 17.6098 15.7884 17.557 15.9806 17.3668L17.0362 16.3112L20.8903 18.72C20.4636 19.6804 19.9071 20.2522 19.2709 20.5853C18.5337 20.9713 17.6334 21.0443 16.6059 20.8313C14.5508 20.4053 12.0686 18.7902 10.0459 16.721C8.02311 14.652 6.45767 12.136 6.05868 10.0889C5.85917 9.06553 5.94726 8.1842 6.32522 7.4855C6.65057 6.8838 7.20333 6.36878 8.12928 5.99925L8.12907 5.99938Z" fill="white"/>
</svg>
