<svg width="79" height="80" viewBox="0 0 79 80" fill="none" xmlns="http://www.w3.org/2000/svg">
<path d="M49.24 51.29C50.37 51.29 51.29 50.37 51.29 49.24V27.11C51.29 27 51.28 26.89 51.26 26.78C51.28 26.4 51.29 26.02 51.29 25.64C51.29 11.48 39.81 0 25.65 0H2.05C0.92 0 0 0.92 0 2.05V24.18C0 24.29 0.0100007 24.4 0.0300007 24.51C0.0100007 24.89 0 25.27 0 25.65C0 39.81 11.48 51.29 25.64 51.29H49.24Z" fill="#3157A7"/>
<path d="M66.74 27.52C60.18 27.52 54.86 32.84 54.86 39.4C54.86 39.58 54.86 39.75 54.87 39.93C54.86 39.98 54.86 40.03 54.86 40.08V50.33C54.86 50.85 55.28 51.28 55.81 51.28H66.74C73.3 51.28 78.62 45.96 78.62 39.4C78.62 39.22 78.61 39.05 78.61 38.87C78.62 38.82 78.62 38.77 78.62 38.72V28.47C78.62 27.95 78.19 27.52 77.67 27.52H66.74ZM39.4 55.25C32.84 55.25 27.52 60.57 27.52 67.13C27.52 67.31 27.53 67.48 27.53 67.66C27.52 67.71 27.52 67.76 27.52 67.81V78.06C27.52 78.58 27.94 79.01 28.47 79.01H39.4C45.96 79.01 51.28 73.69 51.28 67.13C51.28 66.95 51.27 66.78 51.27 66.6C51.28 66.55 51.28 66.5 51.28 66.45V56.2C51.28 55.68 50.85 55.25 50.33 55.25H39.4Z" fill="#36A692"/>
</svg>
